<?xml version="1.0" encoding="UTF-8" standalone="no"?>
<!-- Created with Inkscape (http://www.inkscape.org/) -->

<svg
   width="400"
   height="400"
   viewBox="0 0 105.83333 105.83334"
   version="1.1"
   id="svg5"
   xmlns="http://www.w3.org/2000/svg"
   xmlns:svg="http://www.w3.org/2000/svg">
  <defs
     id="defs2" />
  <g
     id="layer1">
    <path
       style="fill:#000000;stroke-width:0.168938"
       d="M 43.089619,95.997085 C 41.093036,95.630767 39.210286,94.865674 37.543218,93.743202 36.536584,93.065413 25.061634,81.660571 24.080406,80.362637 21.278683,76.656639 20.592504,71.959703 22.219991,67.627935 c 0.8254,-2.196928 1.807151,-3.49135 5.26782,-6.945571 l 3.130038,-3.124214 2.99687,2.99687 2.996877,2.996877 -2.804015,2.830354 c -3.681945,3.716532 -3.879161,4.021094 -3.882571,5.995885 -0.0032,1.825451 0.150439,2.023286 6.568417,8.460464 3.225501,3.235142 6.168628,6.047062 6.540297,6.248703 0.995537,0.540114 3.242236,0.525333 4.307932,-0.02835 0.519324,-0.269814 4.224147,-3.855848 11.691737,-11.316862 12.116562,-12.105886 11.694533,-11.608341 11.700171,-13.793846 0.0026,-0.91548 -0.08764,-1.360635 -0.39848,-1.970992 -0.280279,-0.550343 -2.218395,-2.596774 -6.418144,-6.776819 -5.347826,-5.322733 -6.109164,-6.019109 -6.849175,-6.264762 -1.126106,-0.373821 -2.089678,-0.347527 -3.257867,0.08891 -0.857798,0.320467 -1.351665,0.734252 -4.02598,3.373175 l -3.048244,3.007897 -2.996615,-3.000088 -2.996615,-3.000088 3.426305,-3.371745 c 3.483612,-3.428138 4.355667,-4.099779 6.390024,-4.921494 1.791239,-0.723513 3.226536,-0.941442 5.56769,-0.845372 2.779573,0.114063 4.353994,0.608051 6.673075,2.093732 1.679589,1.075995 13.259444,12.659671 14.31857,14.323291 2.86127,4.494332 2.877341,10.167081 0.04118,14.540703 -0.754065,1.162845 -22.380004,22.958055 -23.989172,24.176948 -1.310468,0.992631 -2.955846,1.815374 -4.507191,2.253736 -1.388009,0.39221 -4.318902,0.571956 -5.573309,0.341812 z M 47.17272,67.27961 c -3.427698,-0.877725 -4.241151,-1.497315 -11.513134,-8.769304 -6.517859,-6.51786 -7.221112,-7.355493 -8.156546,-9.715139 -1.589024,-4.008331 -1.146614,-8.621776 1.169907,-12.199695 0.751728,-1.161057 22.374777,-22.951961 23.990196,-24.176421 1.325652,-1.004825 2.965041,-1.819861 4.596646,-2.285265 1.867165,-0.5325935 4.989425,-0.5324314 6.857336,3.57e-4 1.413249,0.403104 2.948427,1.117971 4.172919,1.943156 0.879335,0.592579 11.348077,10.920342 12.930338,12.756207 3.230169,3.74789 4.125996,8.750793 2.392012,13.35862 -0.825208,2.192867 -1.571969,3.179426 -5.130356,6.77779 l -3.257701,3.2943 -2.999016,-2.995702 -2.999006,-2.995702 2.7977,-2.832677 c 3.693301,-3.739488 3.880838,-4.029083 3.884234,-5.99821 0.0032,-1.82455 -0.151173,-2.023465 -6.56842,-8.466358 -6.528658,-6.554748 -6.70947,-6.694655 -8.652023,-6.694655 -2.161159,0 -1.750994,-0.348164 -13.88749,11.788093 -12.114614,12.114372 -11.694987,11.619355 -11.700618,13.802804 -0.0026,0.915487 0.08764,1.360642 0.39848,1.970999 0.279826,0.549462 2.225131,2.605637 6.418144,6.783932 5.71786,5.697799 6.062182,6.00888 6.934212,6.264768 1.235015,0.362399 2.00814,0.339055 3.17283,-0.09579 0.860441,-0.321253 1.353542,-0.736079 4.110314,-3.45779 l 3.132572,-3.092736 2.995108,2.998581 2.995108,2.998582 -3.424664,3.391602 c -3.775212,3.738766 -4.942271,4.582708 -7.479192,5.408471 -1.868396,0.60816 -5.289797,0.721183 -7.17989,0.237187 z"
       id="path872" />
  </g>
</svg>
