<?xml version="1.0" encoding="UTF-8" standalone="no"?>
<!-- Created with Inkscape (http://www.inkscape.org/) -->

<svg
   width="200"
   height="200"
   viewBox="0 0 52.916664 52.916668"
   version="1.1"
   id="svg5"
   xmlns="http://www.w3.org/2000/svg"
   xmlns:svg="http://www.w3.org/2000/svg">
  <defs
     id="defs2" />
  <g
     id="layer1">
    <path
       style="fill:#000000;stroke-width:0.26106"
       d="M 2.0017684,48.404576 C 0.67219009,47.074999 0.47717944,46.75171 0.47717944,45.877132 c 0,-0.946687 0.23719115,-1.241627 4.23492626,-5.266008 l 4.2349267,-4.263154 -2.988987,-2.997492 -2.9889885,-2.997491 1.6848678,-1.699979 1.6848682,-1.699979 2.5515649,2.541991 2.5515652,2.54199 2.680202,-2.67108 c 1.474112,-1.469095 2.751767,-2.671082 2.839236,-2.671082 0.08747,0 1.639715,1.570348 3.449436,3.489662 l 3.290405,3.489661 -2.670715,2.637902 -2.670716,2.637899 2.606938,2.61918 2.606938,2.619184 -1.696568,1.696567 -1.696567,1.696568 -2.988585,-2.997087 -2.988585,-2.997085 -4.2194874,4.170933 c -4.1297571,4.082233 -4.243286,4.170933 -5.3384942,4.170933 -1.0161844,0 -1.2590892,-0.140084 -2.643592,-1.524589 z M 44.917288,47.604864 c -1.397014,-1.278368 -3.359897,-3.158692 -4.36197,-4.1785 L 38.73337,41.572165 35.719973,44.577712 32.706574,47.583258 31.02165,45.883224 29.336728,44.18319 31.938212,41.571907 34.539696,38.960626 19.988505,24.407693 5.4373138,9.8547624 V 6.3965872 2.9384118 h 3.4581756 3.4581756 l 14.552931,14.5511912 14.552932,14.551191 2.553466,-2.543881 2.553465,-2.543884 1.684859,1.699979 1.684872,1.699979 -2.988986,2.997491 -2.988986,2.997492 4.234926,4.263154 c 4.5176,4.547709 4.683164,4.822324 3.863375,6.407625 -0.20435,0.395168 -0.90658,1.211675 -1.560517,1.814453 -1.892482,1.74442 -2.468684,1.617545 -5.578714,-1.228338 z m -12.46106,-29.786818 -3.387013,-3.394548 5.738091,-5.7425432 5.738093,-5.742543 h 3.461274 3.461257 V 6.3996789 9.8609458 L 41.787706,15.53677 c -3.124123,3.121704 -5.739678,5.675825 -5.812344,5.675825 -0.07266,0 -1.656278,-1.527547 -3.519134,-3.394549 z"
       id="path854" />
  </g>
</svg>
